# xmcd
#
# Track frame offsets: 
#        150
#        19460
#        34280
#        52480
#        78665
#        92880
#        112325
#        134465
#        148460
#        162755
#        175650
#        186905
#        207185
#        232450
#        250210
#
# Disc length: 3538 seconds
#
# Revision: 1
# Processed by: cddbd v1.5.2PL0 Copyright (c) Steve Scherf et al.
# Submitted via: ExactAudioCopy v1.0b3
#
DISCID=f20dd00f
DTITLE=FREE - HIGHWAY (JAPANESE LTD. EDITION PAPERSLEEVE)
DYEAR=1970
DGENRE=Blues Rock/Classic Rock
TTITLE0=The Highway Song (2002 Remaster)
TTITLE1=The Stealer (2002 Remaster)
TTITLE2=On My Way (2002 Remaster)
TTITLE3=Be My Friend (2002 Remaster)
TTITLE4=Sunny Day (2002 Remaster)
TTITLE5=Ride On A Pony (2002 Remaster)
TTITLE6=Love You So (2002 Remaster)
TTITLE7=Bodie (2002 Remaster)
TTITLE8=Soon I Will Be Gone (2002 Remaster)
TTITLE9=My Brother Jake (Single)
TTITLE10=Only My Soul (Single B-Side)
TTITLE11=Ride On A Pony (BBC Session)
TTITLE12=Be My Friend (BBC Session)
TTITLE13=Rain (Alternative Version)
TTITLE14=The Stealer (Single Version)
EXTD=
EXTT0=
EXTT1=
EXTT2=
EXTT3=
EXTT4=
EXTT5=
EXTT6=
EXTT7=
EXTT8=
EXTT9=
EXTT10=
EXTT11=
EXTT12=
EXTT13=
EXTT14=
PLAYORDER=
